<?xml version="1.0" standalone="no"?><!DOCTYPE svg PUBLIC "-//W3C//DTD SVG 1.1//EN" "http://www.w3.org/Graphics/SVG/1.1/DTD/svg11.dtd"><svg t="1603910707915" class="icon" viewBox="0 0 1024 1024" version="1.1" xmlns="http://www.w3.org/2000/svg" p-id="1647" xmlns:xlink="http://www.w3.org/1999/xlink" width="200" height="200"><defs><style type="text/css"></style></defs><path d="M813.7 774.8c-14.9 0-29.6-2-43.9-5.9-5.1-1.4-9.3-5-11.6-9.8-2.2-4.8-2.2-10.4 0-15.2 14-30.1 21.1-62.2 21.1-95.4v-186c0-9.2 6.9-16.9 16-17.9 6.1-0.7 12.3-1 18.4-1 91.3 0 165.6 74.3 165.6 165.6S905 774.8 813.7 774.8zM799.6 738c4.7 0.5 9.4 0.8 14.1 0.8 71.5 0 129.6-58.1 129.6-129.6 0-70.9-57.3-128.7-128-129.6v169c0 30.8-5.3 60.8-15.7 89.4zM272.5 286.9c-9.9 0-18-8.1-18-18V137.7c0-9.9 8.1-18 18-18s18 8.1 18 18v131.2c0 9.9-8.1 18-18 18zM436.5 286.9c-9.9 0-18-8.1-18-18V47.5c0-9.9 8.1-18 18-18s18 8.1 18 18v221.4c0 9.9-8.1 18-18 18zM600.5 278.7c-9.9 0-18-8.1-18-18V129.5c0-9.9 8.1-18 18-18s18 8.1 18 18v131.2c0 9.9-8.1 18-18 18z" fill="" p-id="1648"></path><path d="M551.3 912.5H321.7c-70.2 0-136.5-27.5-186.5-77.5S57.7 718.8 57.7 648.5v-0.8c0-9.9 8.1-18 18-18s18 8.1 18 18v0.8c0 125.7 102.3 228 228 228h229.6c125.7 0 228-102.3 228-228v-246c0-8.2-6.6-14.8-14.8-14.8H286.6c-9.9 0-18-8.1-18-18s8.1-18 18-18h477.9c28 0 50.8 22.8 50.8 50.8v246c0 70.2-27.5 136.5-77.5 186.5s-116.3 77.5-186.5 77.5z" fill="" p-id="1649"></path><path d="M75.7 468.5c-9.9 0-18-8.1-18-18v-47.9c0-28 22.8-50.8 50.8-50.8h214.2c9.9 0 18 8.1 18 18s-8.1 18-18 18H108.5c-8.2 0-14.8 6.6-14.8 14.8v47.9c0 9.9-8.1 18-18 18zM75.7 587c-9.9 0-18-8.1-18-18v-40.2c0-9.9 8.1-18 18-18s18 8.1 18 18V569c0 9.9-8.1 18-18 18zM764.5 994.5h-656c-9.9 0-18-8.1-18-18s8.1-18 18-18h656c9.9 0 18 8.1 18 18s-8.1 18-18 18zM593.1 502.3c-9.9 0-18-8.1-18-18V369.7c0-9.9 8.1-18 18-18s18 8.1 18 18v114.5c0 10-8 18.1-18 18.1z" fill="" p-id="1650"></path><path d="M665.1 679.4h-144c-15.4 0-28-12.6-28-28v-144c0-15.4 12.6-28 28-28h144c15.4 0 28 12.6 28 28v144c0 15.4-12.5 28-28 28z m-136-36h128v-128h-128v128z" fill="" p-id="1651"></path></svg>